<?xml version="1.0" encoding="UTF-8"?> <!-- Generator: Adobe Illustrator 25.4.1, SVG Export Plug-In . SVG Version: 6.00 Build 0) --> <svg xmlns="http://www.w3.org/2000/svg" xmlns:xlink="http://www.w3.org/1999/xlink" version="1.1" id="Layer_1" x="0px" y="0px" viewBox="0 0 245 69.7" style="enable-background:new 0 0 245 69.7;" xml:space="preserve"> <style type="text/css"> .st0{fill:#5A3A96;} </style> <g> <g> <path class="st0" d="M27,45.5L27,45.5c0.3-1.5,1-2.9,2.2-4c1.6-1.6,3.7-2.4,5.7-2.3l0,0c1.2,0.1,2.3-0.4,3.2-1.2c0,0,0,0,0,0 c0,0,0,0,0,0c0.9-0.9,1.3-2.1,1.2-3.2l0,0c0-2.1,0.8-4.2,2.3-5.7c1.1-1.1,2.6-1.9,4-2.2l0,0c0.5-0.1,0.9-0.3,1.2-0.6 c0.9-0.9,0.9-2.3,0-3.1c-0.9-0.9-2.3-0.9-3.1,0c-0.4,0.4-0.6,0.8-0.6,1.2l0,0c-0.3,1.5-1,2.9-2.2,4c-1.6,1.6-3.7,2.4-5.7,2.3 c-1.2-0.1-2.3,0.4-3.2,1.2c0,0,0,0,0,0c0,0,0,0,0,0c-0.9,0.9-1.3,2.1-1.2,3.2c0,2.1-0.8,4.1-2.3,5.7c-1.1,1.1-2.6,1.9-4,2.2l0,0 c-0.5,0.1-0.9,0.3-1.2,0.6c-0.9,0.9-0.9,2.3,0,3.1c0.9,0.9,2.3,0.9,3.1,0C26.7,46.4,26.9,45.9,27,45.5z"></path> <path class="st0" d="M14.4,28.8c-0.9,0.9-1.3,2.1-1.2,3.2c0,2.1-0.8,4.1-2.3,5.7c-1.1,1.1-2.6,1.9-4,2.2l0,0 c-0.5,0.1-0.9,0.3-1.2,0.6c-0.9,0.9-0.9,2.3,0,3.1c0.9,0.9,2.3,0.9,3.1,0c0.4-0.4,0.6-0.8,0.6-1.2l0,0c0.3-1.5,1-2.9,2.2-4 c1.6-1.6,3.7-2.4,5.7-2.3l0,0c1.2,0.1,2.3-0.4,3.2-1.2c1.7-1.7,1.7-4.4,0-6C18.8,27.1,16.1,27.1,14.4,28.8z"></path> <path class="st0" d="M17.7,16.1c0.4-0.4,0.6-0.8,0.6-1.2l0,0c0.3-1.5,1-2.9,2.2-4c1.6-1.6,3.7-2.4,5.7-2.3l0,0 c1.2,0.1,2.3-0.4,3.2-1.2c1.7-1.7,1.7-4.4,0-6c-1.7-1.7-4.4-1.7-6,0c-0.9,0.9-1.3,2.1-1.2,3.2c0,2.1-0.8,4.1-2.3,5.7 c-1.1,1.1-2.6,1.9-4,2.2l0,0c-0.5,0.1-0.9,0.3-1.2,0.6c-0.9,0.9-0.9,2.3,0,3.1C15.4,17,16.8,17,17.7,16.1z"></path> <path class="st0" d="M40.7,49c-1.7-1.7-4.4-1.7-6,0c-0.9,0.9-1.3,2.1-1.2,3.2c0,2.1-0.8,4.1-2.3,5.7c-1.1,1.1-2.6,1.9-4,2.2l0,0 c-0.5,0.1-0.9,0.3-1.2,0.6c-0.9,0.9-0.9,2.3,0,3.1c0.9,0.9,2.3,0.9,3.1,0c0.4-0.4,0.6-0.8,0.6-1.2l0,0c0.3-1.5,1-2.9,2.2-4 c1.6-1.6,3.7-2.4,5.7-2.3l0,0c1.2,0.1,2.3-0.4,3.2-1.2C42.3,53.3,42.3,50.6,40.7,49z"></path> <path class="st0" d="M41.5,10.7c0.5,0.2,1,0.2,1.4,0.1l0,0c1.5-0.3,3.1-0.2,4.6,0.4c2,0.8,3.6,2.3,4.4,4.2c0,0,0,0.1,0,0.1 c0.2,0.5,0.5,1,0.9,1.4c0,0,0.1,0.1,0.1,0.1c0,0,0.1,0.1,0.1,0.1c0.4,0.4,0.8,0.7,1.4,0.9c0,0,0.1,0,0.1,0 c1.9,0.8,3.4,2.4,4.2,4.4c0.6,1.5,0.7,3.1,0.4,4.6l0,0c-0.1,0.4-0.1,0.9,0.1,1.4c0.4,1.1,1.7,1.7,2.9,1.3c1.1-0.4,1.7-1.7,1.3-2.9 c-0.2-0.5-0.5-0.8-0.9-1.1l0,0c-1.2-0.9-2.2-2.1-2.8-3.6c-0.8-2-0.7-4.2,0.1-6c0.1-0.2,0.2-0.3,0.3-0.5c0.6-1.6,0.2-3.3-0.9-4.5 c0,0,0,0-0.1-0.1c0,0,0,0-0.1-0.1c-1.2-1.1-2.9-1.5-4.5-0.9c-0.2,0.1-0.4,0.2-0.5,0.3c-1.8,0.8-4,0.9-6,0.1 c-1.5-0.6-2.7-1.6-3.6-2.8l0,0c-0.2-0.4-0.6-0.7-1.1-0.9c-1.1-0.4-2.4,0.1-2.9,1.3C39.8,9,40.3,10.3,41.5,10.7z"></path> <path class="st0" d="M27.9,16.5c-1.4,1.4-1.4,3.7,0,5.1c1.4,1.4,3.7,1.4,5.1,0c1.4-1.4,1.4-3.7,0-5.1 C31.6,15.1,29.3,15.1,27.9,16.5z"></path> <path class="st0" d="M6.1,24.6c-1.4-1.4-3.7-1.4-5.1,0s-1.4,3.7,0,5.1c1.4,1.4,3.7,1.4,5.1,0C7.5,28.2,7.5,26,6.1,24.6z"></path> <path class="st0" d="M68.4,40.2c-1.7-1.7-4.4-1.7-6,0c-0.9,0.9-1.3,2.1-1.2,3.2c0,2.1-0.8,4.1-2.3,5.7c-1.1,1.1-2.6,1.9-4,2.2l0,0 c-0.5,0.1-0.9,0.3-1.2,0.6c-0.9,0.9-0.9,2.3,0,3.1c0.9,0.9,2.3,0.9,3.1,0c0.4-0.4,0.6-0.8,0.6-1.2l0,0c0.3-1.5,1-2.9,2.2-4 c1.6-1.6,3.7-2.4,5.7-2.3l0,0c1.2,0.1,2.3-0.4,3.2-1.2C70.1,44.6,70.1,41.9,68.4,40.2z"></path> <circle class="st0" cx="42.6" cy="66.1" r="3.6"></circle> <path class="st0" d="M53.1,36.6c-1.4-1.4-3.7-1.4-5.1,0s-1.4,3.7,0,5.1c1.4,1.4,3.7,1.4,5.1,0C54.5,40.3,54.5,38,53.1,36.6z"></path> <path class="st0" d="M10.9,53.9c-1.4,1.4-1.4,3.7,0,5.1c1.4,1.4,3.7,1.4,5.1,0c1.4-1.4,1.4-3.7,0-5.1S12.3,52.5,10.9,53.9z"></path> </g> <path d="M235.6,25.8c0,0.7,0.2,1.4,0.6,1.9h0c1.2,1.8,1.9,4,1.9,6.4c0,3.2-1.3,6.2-3.5,8.3l0,0c-1.2,1.1-2,2.8-2,4.6 c0,3.4,2.8,6.2,6.2,6.2c3.4,0,6.2-2.8,6.2-6.2c0-1.8-0.8-3.5-2-4.6c-2.1-2.1-3.5-5-3.5-8.3c0-2.4,0.7-4.5,1.9-6.4h0 c0.4-0.5,0.6-1.2,0.6-1.9c0-1.8-1.4-3.2-3.2-3.2C237.1,22.6,235.6,24,235.6,25.8z"></path> <path d="M129.6,42.8c1.5,0.9,2.9,1.7,4.4,2.6c-1.1,2.1-2.5,3.7-4.4,5c-5.9,4.2-15.9,3.8-21.2-2.5c-2.2-2.5-3.3-5.5-3.6-8.7 c-0.3-4,0.5-7.7,2.9-11c2.6-3.6,6.2-5.5,10.5-6c4.2-0.5,8,0.5,11.3,3.3c3.1,2.6,4.7,6,5.3,10c0.2,1.4,0.1,2.8,0.1,4.2 c0,0.4-0.1,0.5-0.5,0.5c-0.3,0-0.5,0-0.8,0c-7.5,0-15.1,0-22.6,0c-0.3,0-0.5-0.1-0.8,0.1c0.3,2.6,2.5,6.1,6.3,7.3 c2.5,0.9,5,0.9,7.5,0.2C126.6,46.9,128.5,45.3,129.6,42.8z M129.6,35.2c-0.6-4.4-4.3-8.5-10-8.2c-4.9,0.3-9.7,4.4-9.4,8.2 C116.7,35.2,123.1,35.2,129.6,35.2z"></path> <path d="M144.4,26c0.5-0.4,0.8-0.7,1.2-1c2.4-1.8,5.1-2.5,8.1-2.4c2.4,0.1,4.6,0.6,6.6,2c2.7,1.9,4.1,4.6,4.6,7.9 c0.1,1,0.2,1.9,0.2,2.9c0,5.6,0,11.2,0,16.9c0,0.8,0,0.8-0.9,0.8c-1.2,0-2.3,0-3.5,0c-0.6,0-0.7-0.2-0.7-0.7c0-5.8,0-11.5,0-17.3 c0-1-0.1-2-0.4-3c-0.7-2.4-2.3-3.9-4.7-4.4c-2.9-0.6-5.6-0.1-7.8,2c-1.7,1.6-2.3,3.6-2.6,5.9c-0.2,2.4-0.1,4.8-0.1,7.3 c0,3.2,0,6.4,0,9.5c0,0.5-0.1,0.7-0.7,0.7c-1.2,0-2.4,0-3.6,0c-0.6,0-0.7-0.2-0.7-0.7c0-2.7,0-5.4,0-8c0-6.8,0-13.5,0-20.3 c0-0.8,0-0.8,0.8-0.8c1.2,0,2.4,0,3.6,0c0.4,0,0.6,0.2,0.6,0.6C144.3,24.5,144.4,25.2,144.4,26z"></path> <path d="M184.8,28.3c-0.3-0.2-0.6-0.1-0.8-0.1c-4.4,0-8.8,0-13.1,0c-0.8,0-0.8,0-0.8-0.8c0-1.2,0-2.4,0-3.6c0-0.4,0.1-0.6,0.6-0.6 c7,0,14,0,21,0c0.4,0,0.6,0.1,0.6,0.5c0,0,0,0.1,0,0.1c0.2,1.8-0.3,3.2-1.4,4.7c-4.5,6.2-9,12.5-13.4,18.7 c-0.2,0.2-0.3,0.4-0.5,0.7c0.3,0.3,0.6,0.2,0.8,0.2c4.7,0,9.5,0,14.2,0c0.8,0,0.8,0,0.8,0.8c0,1.2,0,2.3,0,3.5 c0,0.5-0.1,0.7-0.6,0.7c-7.3,0-14.7,0-22,0c-0.5,0-0.7-0.1-0.6-0.6c0,0,0,0,0-0.1c-0.3-1.8,0.4-3.2,1.4-4.7 c4.6-6.2,9.1-12.5,13.6-18.8C184.6,28.7,184.7,28.6,184.8,28.3z"></path> <path d="M87.2,23c0-0.9,0-1.6,0-2.4c0-1.2,0-2.5,0-3.7c0-0.2,0-0.5,0.3-0.6c1.6-0.5,3.1-0.9,4.7-1.4c0.2,0.3,0.2,0.5,0.2,0.8 c0,2.2,0,4.4,0,6.6c0,0.5,0.2,0.6,0.6,0.6c2.3,0,4.6,0,6.9,0c0.5,0,0.7,0.2,0.7,0.7c0,1.2,0,2.4,0,3.6c0,0.5-0.2,0.7-0.7,0.7 c-2.3,0-4.5,0-6.8,0c-0.6,0-0.8,0.2-0.8,0.8c0,5.3,0,10.7,0,16c0,0.5,0,1,0.1,1.5c0.3,1.3,0.8,1.8,2.1,2c1.5,0.2,3,0.1,4.5-0.1 c1.5-0.1,1.5-0.2,1.5,1.3c0,0.9,0,1.8,0,2.8c0,0.2,0,0.5-0.3,0.5c-2.7,0.4-5.4,0.8-8.1-0.1c-2.8-0.9-4.2-2.9-4.7-5.7 c-0.1-0.9-0.2-1.8-0.2-2.7c0-5.1,0-10.3,0-15.4c0-0.8,0-0.8-0.8-0.8c-1.5,0-3.1,0-4.6,0c-0.5,0-0.7-0.1-0.7-0.7c0-1.2,0-2.4,0-3.6 c0-0.6,0.1-0.8,0.7-0.8c1.5,0,3.1,0,4.6,0C86.6,23,86.8,23,87.2,23z"></path> <path d="M223.2,48.7c-6.2,6.4-16.5,5.5-22-0.5c-5.5-6.1-5.4-15.1,0.1-21.2c5.4-5.9,15.6-6.7,21.8-0.3c0-0.7,0-1.4,0-2 c0-0.6-0.3-1.3,0.2-1.7c0.4-0.4,1.1-0.1,1.7-0.1c0.9,0,1.8,0,2.7,0c0.4,0,0.5,0.1,0.5,0.5c0,0.1,0,0.2,0,0.4c0,9.3,0,18.6,0,27.9 c0,0.9,0,0.9-0.9,0.9c-1.2,0-2.4,0-3.6,0c-0.4,0-0.6-0.1-0.5-0.5C223.2,51,223.2,49.9,223.2,48.7z M223.2,37.8 c0.1-5.8-4.4-10.5-10.3-10.6c-5.8-0.2-10.6,4.5-10.7,10.5c-0.1,5.8,4.5,10.5,10.4,10.6C218.4,48.4,223,43.8,223.2,37.8z"></path> <circle cx="238.9" cy="13.2" r="4.4"></circle> </g> </svg> 